<svg xmlns="http://www.w3.org/2000/svg" xmlns:xlink="http://www.w3.org/1999/xlink" width="500" zoomAndPan="magnify" viewBox="0 0 375 374.999991" height="500" preserveAspectRatio="xMidYMid meet" version="1.0"><defs><g/><clipPath id="97669a1b28"><path d="M 37.5 79.90625 L 273.75 79.90625 L 273.75 223.15625 L 37.5 223.15625 Z M 37.5 79.90625 " clip-rule="nonzero"/></clipPath><clipPath id="4d4860f974"><path d="M 37.5 80.386719 L 174.75 80.386719 L 174.75 184.636719 L 37.5 184.636719 Z M 37.5 80.386719 " clip-rule="nonzero"/></clipPath><clipPath id="be5b959f76"><path d="M 133.863281 129 L 211 129 L 211 132 L 133.863281 132 Z M 133.863281 129 " clip-rule="nonzero"/></clipPath><clipPath id="a794c9e220"><path d="M 133.863281 147 L 211 147 L 211 150 L 133.863281 150 Z M 133.863281 147 " clip-rule="nonzero"/></clipPath><clipPath id="49e58f988f"><path d="M 133.863281 165 L 158 165 L 158 167 L 133.863281 167 Z M 133.863281 165 " clip-rule="nonzero"/></clipPath><clipPath id="ccd8323c3e"><path d="M 329 161 L 337.566406 161 L 337.566406 171 L 329 171 Z M 329 161 " clip-rule="nonzero"/></clipPath><clipPath id="2365cb8c04"><path d="M 262 108.539062 L 272 108.539062 L 272 118 L 262 118 Z M 262 108.539062 " clip-rule="nonzero"/></clipPath><clipPath id="c9945b774f"><path d="M 209 179 L 219 179 L 219 188.679688 L 209 188.679688 Z M 209 179 " clip-rule="nonzero"/></clipPath></defs><g clip-path="url(#97669a1b28)"><path fill="#ffffff" d="M 247.21875 140.832031 C 248.429688 137.625 249.113281 134.152344 249.113281 130.511719 C 249.113281 114.476562 236.121094 101.464844 220.070312 101.464844 C 216.796875 101.464844 213.675781 102.011719 210.734375 103.011719 C 203.539062 89.285156 189.136719 79.914062 172.554688 79.914062 C 152.402344 79.914062 135.488281 93.738281 130.769531 112.414062 C 125.9375 108.210938 119.640625 105.652344 112.726562 105.652344 C 97.542969 105.652344 85.230469 117.964844 85.230469 133.152344 C 85.230469 133.386719 85.230469 133.601562 85.25 133.835938 C 80.710938 131.441406 75.546875 130.0625 70.046875 130.0625 C 52.070312 130.078125 37.5 144.652344 37.5 162.632812 C 37.5 180.613281 52.070312 195.203125 70.0625 195.203125 C 73.171875 195.203125 76.175781 194.753906 79.019531 193.9375 C 82.789062 209.058594 96.445312 220.277344 112.746094 220.277344 C 123.410156 220.277344 132.929688 215.472656 139.308594 207.914062 C 143.761719 216.9375 153.050781 223.136719 163.78125 223.136719 C 174.515625 223.136719 183.253906 217.285156 187.855469 208.695312 C 188.003906 208.644531 188.15625 208.613281 188.304688 208.5625 C 192.574219 212.933594 198.539062 215.65625 205.132812 215.65625 C 216.765625 215.65625 226.417969 207.214844 228.328125 196.132812 C 232.847656 198.890625 238.164062 200.46875 243.863281 200.46875 C 260.375 200.46875 273.78125 187.074219 273.78125 170.542969 C 273.78125 155.171875 262.1875 142.492188 247.25 140.8125 Z M 247.21875 140.832031 " fill-opacity="1" fill-rule="nonzero"/></g><g clip-path="url(#4d4860f974)"><path fill="#7ba4db" d="M 247.34375 140.855469 C 248.554688 137.648438 249.238281 134.171875 249.238281 130.53125 C 249.238281 114.492188 236.238281 101.472656 220.179688 101.472656 C 216.902344 101.472656 213.777344 102.023438 210.835938 103.019531 C 203.636719 89.289062 189.226562 79.914062 172.636719 79.914062 C 152.46875 79.914062 135.546875 93.742188 130.824219 112.429688 C 125.988281 108.222656 119.6875 105.664062 112.773438 105.664062 C 97.578125 105.664062 85.261719 117.980469 85.261719 133.175781 C 85.261719 133.410156 85.261719 133.625 85.277344 133.855469 C 80.738281 131.464844 75.570312 130.082031 70.066406 130.082031 C 52.078125 130.101562 37.5 144.679688 37.5 162.667969 C 37.5 180.652344 52.078125 195.25 70.082031 195.25 C 73.191406 195.25 76.199219 194.800781 79.042969 193.984375 C 82.816406 209.113281 96.480469 220.335938 112.789062 220.335938 C 123.460938 220.335938 132.988281 215.53125 139.371094 207.964844 C 143.824219 216.992188 153.117188 223.195312 163.859375 223.195312 C 174.597656 223.195312 183.339844 217.34375 187.945312 208.746094 C 188.09375 208.699219 188.246094 208.664062 188.394531 208.613281 C 192.667969 212.988281 198.632812 215.710938 205.234375 215.710938 C 216.871094 215.710938 226.53125 207.269531 228.441406 196.179688 C 232.960938 198.9375 238.28125 200.519531 243.984375 200.519531 C 260.507812 200.519531 273.921875 187.121094 273.921875 170.578125 C 273.921875 155.203125 262.320312 142.519531 247.375 140.839844 Z M 247.34375 140.855469 " fill-opacity="1" fill-rule="nonzero"/></g><path fill="#000000" d="M 262.738281 113.789062 L 209.835938 113.789062 C 209.371094 113.789062 208.992188 113.410156 208.992188 112.941406 C 208.992188 112.476562 209.371094 112.097656 209.835938 112.097656 L 262.738281 112.097656 C 263.203125 112.097656 263.582031 112.476562 263.582031 112.941406 C 263.582031 113.410156 263.203125 113.789062 262.738281 113.789062 Z M 262.738281 113.789062 " fill-opacity="1" fill-rule="nonzero"/><path fill="#000000" d="M 210.433594 113.539062 L 192.800781 131.226562 C 192.46875 131.558594 191.9375 131.558594 191.605469 131.226562 C 191.277344 130.898438 191.277344 130.363281 191.605469 130.03125 L 209.242188 112.34375 C 209.570312 112.011719 210.105469 112.011719 210.433594 112.34375 C 210.761719 112.675781 210.761719 113.210938 210.433594 113.539062 Z M 210.433594 113.539062 " fill-opacity="1" fill-rule="nonzero"/><g clip-path="url(#be5b959f76)"><path fill="#000000" d="M 86.398438 129.785156 L 209.835938 129.785156 C 210.300781 129.785156 210.679688 130.164062 210.679688 130.628906 C 210.679688 131.097656 210.300781 131.476562 209.835938 131.476562 L 86.398438 131.476562 C 85.933594 131.476562 85.554688 131.097656 85.554688 130.628906 C 85.554688 130.164062 85.933594 129.785156 86.398438 129.785156 Z M 86.398438 129.785156 " fill-opacity="1" fill-rule="nonzero"/></g><path fill="#000000" d="M 210.433594 130.03125 L 245.699219 165.410156 C 246.03125 165.738281 246.03125 166.273438 245.699219 166.605469 C 245.371094 166.9375 244.835938 166.9375 244.507812 166.605469 L 209.242188 131.226562 C 208.910156 130.898438 208.910156 130.363281 209.242188 130.03125 C 209.570312 129.703125 210.105469 129.703125 210.433594 130.03125 Z M 210.433594 130.03125 " fill-opacity="1" fill-rule="nonzero"/><path fill="#000000" d="M 245.105469 165.160156 L 280.371094 165.160156 C 280.839844 165.160156 281.214844 165.539062 281.214844 166.007812 C 281.214844 166.472656 280.839844 166.851562 280.371094 166.851562 L 245.105469 166.851562 C 244.640625 166.851562 244.261719 166.472656 244.261719 166.007812 C 244.261719 165.539062 244.640625 165.160156 245.105469 165.160156 Z M 245.105469 165.160156 " fill-opacity="1" fill-rule="nonzero"/><path fill="#000000" d="M 226.875 147.71875 L 244.507812 130.03125 C 244.835938 129.703125 245.371094 129.703125 245.699219 130.03125 C 246.03125 130.363281 246.03125 130.898438 245.699219 131.226562 L 228.066406 148.917969 C 227.738281 149.246094 227.203125 149.246094 226.875 148.917969 C 226.546875 148.585938 226.546875 148.050781 226.875 147.71875 Z M 226.875 147.71875 " fill-opacity="1" fill-rule="nonzero"/><path fill="#000000" d="M 245.105469 129.785156 L 298.007812 129.785156 C 298.472656 129.785156 298.851562 130.164062 298.851562 130.628906 C 298.851562 131.097656 298.472656 131.476562 298.007812 131.476562 L 245.105469 131.476562 C 244.640625 131.476562 244.261719 131.097656 244.261719 130.628906 C 244.261719 130.164062 244.640625 129.785156 245.105469 129.785156 Z M 245.105469 129.785156 " fill-opacity="1" fill-rule="nonzero"/><g clip-path="url(#a794c9e220)"><path fill="#000000" d="M 86.398438 147.472656 L 209.835938 147.472656 C 210.300781 147.472656 210.679688 147.851562 210.679688 148.320312 C 210.679688 148.785156 210.300781 149.164062 209.835938 149.164062 L 86.398438 149.164062 C 85.933594 149.164062 85.554688 148.785156 85.554688 148.320312 C 85.554688 147.851562 85.933594 147.472656 86.398438 147.472656 Z M 86.398438 147.472656 " fill-opacity="1" fill-rule="nonzero"/></g><path fill="#000000" d="M 210.433594 147.71875 L 245.699219 183.097656 C 246.03125 183.429688 246.03125 183.964844 245.699219 184.292969 C 245.371094 184.625 244.835938 184.625 244.507812 184.292969 L 209.242188 148.917969 C 208.910156 148.585938 208.910156 148.050781 209.242188 147.71875 C 209.570312 147.390625 210.105469 147.390625 210.433594 147.71875 Z M 210.433594 147.71875 " fill-opacity="1" fill-rule="nonzero"/><path fill="#000000" d="M 245.105469 182.851562 L 315.640625 182.851562 C 316.105469 182.851562 316.484375 183.230469 316.484375 183.695312 C 316.484375 184.164062 316.105469 184.542969 315.640625 184.542969 L 245.105469 184.542969 C 244.640625 184.542969 244.261719 184.164062 244.261719 183.695312 C 244.261719 183.226562 244.640625 182.851562 245.105469 182.851562 Z M 245.105469 182.851562 " fill-opacity="1" fill-rule="nonzero"/><path fill="#000000" d="M 279.777344 183.097656 L 297.410156 165.410156 C 297.738281 165.078125 298.273438 165.078125 298.601562 165.410156 C 298.933594 165.738281 298.933594 166.273438 298.601562 166.605469 L 280.96875 184.292969 C 280.640625 184.625 280.105469 184.625 279.777344 184.292969 C 279.445312 183.964844 279.445312 183.429688 279.777344 183.097656 Z M 279.777344 183.097656 " fill-opacity="1" fill-rule="nonzero"/><path fill="#000000" d="M 298.007812 165.160156 L 333.273438 165.160156 C 333.738281 165.160156 334.117188 165.539062 334.117188 166.007812 C 334.117188 166.476562 333.738281 166.851562 333.273438 166.851562 L 298.007812 166.851562 C 297.539062 166.851562 297.164062 166.472656 297.164062 166.007812 C 297.164062 165.539062 297.539062 165.160156 298.007812 165.160156 Z M 298.007812 165.160156 " fill-opacity="1" fill-rule="nonzero"/><g clip-path="url(#49e58f988f)"><path fill="#000000" d="M 86.398438 165.160156 L 156.933594 165.160156 C 157.402344 165.160156 157.777344 165.539062 157.777344 166.007812 C 157.777344 166.472656 157.402344 166.851562 156.933594 166.851562 L 86.398438 166.851562 C 85.933594 166.851562 85.554688 166.472656 85.554688 166.007812 C 85.554688 165.539062 85.933594 165.160156 86.398438 165.160156 Z M 86.398438 165.160156 " fill-opacity="1" fill-rule="nonzero"/></g><path fill="#000000" d="M 157.53125 165.410156 L 175.164062 183.097656 C 175.496094 183.429688 175.496094 183.964844 175.164062 184.292969 C 174.835938 184.625 174.300781 184.625 173.972656 184.292969 L 156.339844 166.605469 C 156.007812 166.273438 156.007812 165.738281 156.339844 165.410156 C 156.667969 165.078125 157.203125 165.078125 157.53125 165.410156 Z M 157.53125 165.410156 " fill-opacity="1" fill-rule="nonzero"/><path fill="#000000" d="M 174.570312 182.851562 L 209.835938 182.851562 C 210.300781 182.851562 210.679688 183.226562 210.679688 183.695312 C 210.679688 184.164062 210.300781 184.542969 209.835938 184.542969 L 174.570312 184.542969 C 174.101562 184.542969 173.726562 184.164062 173.726562 183.695312 C 173.726562 183.226562 174.101562 182.851562 174.570312 182.851562 Z M 174.570312 182.851562 " fill-opacity="1" fill-rule="nonzero"/><path fill="#000000" d="M 302.144531 130.886719 C 302.003906 133.175781 300.035156 134.921875 297.753906 134.78125 C 295.46875 134.640625 293.730469 132.667969 293.871094 130.375 C 294.011719 128.082031 295.976562 126.339844 298.261719 126.480469 C 300.546875 126.621094 302.285156 128.59375 302.144531 130.886719 Z M 302.144531 130.886719 " fill-opacity="1" fill-rule="nonzero"/><path fill="#000000" d="M 284.507812 166.261719 C 284.367188 168.554688 282.402344 170.296875 280.117188 170.15625 C 277.832031 170.015625 276.097656 168.042969 276.234375 165.753906 C 276.375 163.460938 278.34375 161.71875 280.625 161.859375 C 282.910156 162 284.648438 163.972656 284.507812 166.261719 Z M 284.507812 166.261719 " fill-opacity="1" fill-rule="nonzero"/><path fill="#000000" d="M 319.777344 183.949219 C 319.636719 186.242188 317.671875 187.984375 315.386719 187.84375 C 313.101562 187.703125 311.363281 185.730469 311.503906 183.441406 C 311.644531 181.148438 313.609375 179.40625 315.894531 179.546875 C 318.179688 179.6875 319.917969 181.660156 319.777344 183.949219 Z M 319.777344 183.949219 " fill-opacity="1" fill-rule="nonzero"/><g clip-path="url(#ccd8323c3e)"><path fill="#000000" d="M 337.410156 166.261719 C 337.269531 168.554688 335.304688 170.296875 333.019531 170.15625 C 330.734375 170.015625 328.996094 168.042969 329.136719 165.753906 C 329.277344 163.460938 331.246094 161.71875 333.527344 161.859375 C 335.8125 162 337.550781 163.972656 337.410156 166.261719 Z M 337.410156 166.261719 " fill-opacity="1" fill-rule="nonzero"/></g><g clip-path="url(#2365cb8c04)"><path fill="#000000" d="M 271.625 113.472656 C 271.449219 115.941406 269.3125 117.804688 266.851562 117.628906 C 264.390625 117.453125 262.535156 115.308594 262.710938 112.839844 C 262.882812 110.371094 265.019531 108.511719 267.484375 108.683594 C 269.945312 108.859375 271.800781 111.003906 271.625 113.472656 M 269.851562 113.347656 C 269.957031 111.859375 268.839844 110.570312 267.359375 110.464844 C 265.875 110.359375 264.589844 111.480469 264.484375 112.964844 C 264.378906 114.453125 265.496094 115.742188 266.976562 115.847656 C 268.457031 115.953125 269.746094 114.832031 269.851562 113.347656 Z M 269.851562 113.347656 " fill-opacity="1" fill-rule="nonzero"/></g><g clip-path="url(#c9945b774f)"><path fill="#000000" d="M 218.558594 184.234375 C 218.386719 186.703125 216.25 188.566406 213.785156 188.390625 C 211.324219 188.214844 209.46875 186.070312 209.644531 183.601562 C 209.820312 181.132812 211.957031 179.273438 214.417969 179.445312 C 216.878906 179.621094 218.734375 181.765625 218.558594 184.234375 M 216.785156 184.109375 C 216.890625 182.621094 215.773438 181.332031 214.292969 181.226562 C 212.8125 181.121094 211.523438 182.242188 211.417969 183.726562 C 211.3125 185.214844 212.429688 186.503906 213.910156 186.609375 C 215.394531 186.714844 216.679688 185.59375 216.785156 184.109375 Z M 216.785156 184.109375 " fill-opacity="1" fill-rule="nonzero"/></g><g fill="#000000" fill-opacity="1"><g transform="translate(77.488278, 280.429626)"><g><path d="M 11.46875 0 L 4.640625 0 L 4.640625 -35.6875 L 12.71875 -35.6875 L 27.046875 -12.703125 L 27.6875 -12.796875 L 27.6875 -35.6875 L 34.46875 -35.6875 L 34.46875 0 L 27.25 0 L 12.078125 -24.5625 L 11.46875 -24.46875 Z M 11.46875 0 "/></g></g></g><g fill="#000000" fill-opacity="1"><g transform="translate(116.617903, 280.429626)"><g><path d="M 26.609375 -11.9375 L 9.296875 -11.9375 C 9.492188 -9.59375 10.160156 -7.882812 11.296875 -6.8125 C 12.441406 -5.75 14 -5.21875 15.96875 -5.21875 C 17.507812 -5.21875 18.757812 -5.503906 19.71875 -6.078125 C 20.6875 -6.660156 21.460938 -7.539062 22.046875 -8.71875 L 22.5625 -8.71875 L 27.046875 -5.828125 C 26.171875 -3.941406 24.84375 -2.410156 23.0625 -1.234375 C 21.289062 -0.0664062 18.925781 0.515625 15.96875 0.515625 C 13.1875 0.515625 10.78125 -0.0078125 8.75 -1.0625 C 6.726562 -2.125 5.164062 -3.703125 4.0625 -5.796875 C 2.96875 -7.890625 2.421875 -10.441406 2.421875 -13.453125 C 2.421875 -16.515625 3 -19.09375 4.15625 -21.1875 C 5.3125 -23.289062 6.875 -24.859375 8.84375 -25.890625 C 10.8125 -26.921875 13.023438 -27.4375 15.484375 -27.4375 C 19.285156 -27.4375 22.195312 -26.425781 24.21875 -24.40625 C 26.25 -22.394531 27.265625 -19.4375 27.265625 -15.53125 C 27.265625 -14.113281 27.21875 -13.015625 27.125 -12.234375 Z M 20.796875 -16.3125 C 20.734375 -18.363281 20.257812 -19.851562 19.375 -20.78125 C 18.488281 -21.71875 17.191406 -22.1875 15.484375 -22.1875 C 12.066406 -22.1875 10.054688 -20.226562 9.453125 -16.3125 Z M 20.796875 -16.3125 "/></g></g></g><g fill="#000000" fill-opacity="1"><g transform="translate(145.885787, 280.429626)"><g><path d="M 7.59375 0 L 0.46875 0 L 8.15625 -13.96875 L 0.875 -26.921875 L 8.109375 -26.921875 L 12.765625 -18.0625 L 13.328125 -18.0625 L 18.015625 -26.921875 L 25.03125 -26.921875 L 17.96875 -13.96875 L 25.4375 0 L 18.234375 0 L 13.15625 -9.84375 L 12.59375 -9.84375 Z M 7.59375 0 "/></g></g></g><g fill="#000000" fill-opacity="1"><g transform="translate(171.785059, 280.429626)"><g><path d="M 18.578125 -6.421875 L 20.34375 -1.421875 C 19.601562 -0.816406 18.679688 -0.34375 17.578125 0 C 16.472656 0.34375 15.21875 0.515625 13.8125 0.515625 C 10.90625 0.515625 8.691406 -0.273438 7.171875 -1.859375 C 5.660156 -3.453125 4.90625 -5.765625 4.90625 -8.796875 L 4.90625 -21.578125 L 0.8125 -21.578125 L 0.8125 -26.953125 L 4.90625 -26.953125 L 4.90625 -32.203125 L 11.671875 -33.296875 L 11.671875 -26.953125 L 19.3125 -26.953125 L 19.3125 -21.578125 L 11.671875 -21.578125 L 11.671875 -9.28125 C 11.671875 -7.945312 11.945312 -6.972656 12.5 -6.359375 C 13.050781 -5.742188 13.859375 -5.4375 14.921875 -5.4375 C 16.117188 -5.4375 17.164062 -5.765625 18.0625 -6.421875 Z M 18.578125 -6.421875 "/></g></g></g><g fill="#000000" fill-opacity="1"><g transform="translate(192.704639, 280.429626)"><g><path d="M 18.921875 0.515625 C 14.003906 0.515625 10.359375 -0.648438 7.984375 -2.984375 C 5.609375 -5.328125 4.421875 -8.789062 4.421875 -13.375 L 4.421875 -35.6875 L 11.328125 -35.6875 L 11.328125 -13.421875 C 11.328125 -10.816406 11.953125 -8.863281 13.203125 -7.5625 C 14.460938 -6.257812 16.367188 -5.609375 18.921875 -5.609375 C 23.984375 -5.609375 26.515625 -8.210938 26.515625 -13.421875 L 26.515625 -35.6875 L 33.421875 -35.6875 L 33.421875 -13.375 C 33.421875 -8.789062 32.234375 -5.328125 29.859375 -2.984375 C 27.484375 -0.648438 23.835938 0.515625 18.921875 0.515625 Z M 18.921875 0.515625 "/></g></g></g><g fill="#000000" fill-opacity="1"><g transform="translate(230.540521, 280.429626)"><g><path d="M 3.875 0 L 3.875 -26.921875 L 10.375 -26.921875 L 10.375 -22.96875 L 10.890625 -22.859375 C 12.566406 -25.910156 15.285156 -27.4375 19.046875 -27.4375 C 22.148438 -27.4375 24.429688 -26.585938 25.890625 -24.890625 C 27.347656 -23.203125 28.078125 -20.738281 28.078125 -17.5 L 28.078125 0 L 21.3125 0 L 21.3125 -16.671875 C 21.3125 -18.460938 20.953125 -19.753906 20.234375 -20.546875 C 19.523438 -21.335938 18.378906 -21.734375 16.796875 -21.734375 C 14.859375 -21.734375 13.347656 -21.101562 12.265625 -19.84375 C 11.179688 -18.59375 10.640625 -16.625 10.640625 -13.9375 L 10.640625 0 Z M 3.875 0 "/></g></g></g><g fill="#000000" fill-opacity="1"><g transform="translate(262.078559, 280.429626)"><g><path d="M 7.25 -30.15625 C 6.03125 -30.15625 5.035156 -30.523438 4.265625 -31.265625 C 3.503906 -32.003906 3.125 -32.957031 3.125 -34.125 C 3.125 -35.28125 3.503906 -36.226562 4.265625 -36.96875 C 5.035156 -37.71875 6.03125 -38.09375 7.25 -38.09375 C 8.0625 -38.09375 8.785156 -37.921875 9.421875 -37.578125 C 10.054688 -37.234375 10.546875 -36.765625 10.890625 -36.171875 C 11.242188 -35.578125 11.421875 -34.894531 11.421875 -34.125 C 11.421875 -33.363281 11.242188 -32.679688 10.890625 -32.078125 C 10.546875 -31.472656 10.054688 -31 9.421875 -30.65625 C 8.785156 -30.320312 8.0625 -30.15625 7.25 -30.15625 Z M 3.875 0 L 3.875 -26.921875 L 10.640625 -26.921875 L 10.640625 0 Z M 3.875 0 "/></g></g></g><g fill="#000000" fill-opacity="1"><g transform="translate(276.578245, 280.429626)"><g><path d="M 18.578125 -6.421875 L 20.34375 -1.421875 C 19.601562 -0.816406 18.679688 -0.34375 17.578125 0 C 16.472656 0.34375 15.21875 0.515625 13.8125 0.515625 C 10.90625 0.515625 8.691406 -0.273438 7.171875 -1.859375 C 5.660156 -3.453125 4.90625 -5.765625 4.90625 -8.796875 L 4.90625 -21.578125 L 0.8125 -21.578125 L 0.8125 -26.953125 L 4.90625 -26.953125 L 4.90625 -32.203125 L 11.671875 -33.296875 L 11.671875 -26.953125 L 19.3125 -26.953125 L 19.3125 -21.578125 L 11.671875 -21.578125 L 11.671875 -9.28125 C 11.671875 -7.945312 11.945312 -6.972656 12.5 -6.359375 C 13.050781 -5.742188 13.859375 -5.4375 14.921875 -5.4375 C 16.117188 -5.4375 17.164062 -5.765625 18.0625 -6.421875 Z M 18.578125 -6.421875 "/></g></g></g></svg>