<?xml version="1.0" encoding="UTF-8"?>
<svg version="1.1" xmlns="http://www.w3.org/2000/svg" width="499" height="503">
<path d="M0 0 C164.67 0 329.34 0 499 0 C499 165.99 499 331.98 499 503 C334.33 503 169.66 503 0 503 C0 337.01 0 171.02 0 0 Z " fill="#FCFCFC" transform="translate(0,0)"/>
<path d="M0 0 C0 21.78 0 43.56 0 66 C21.38316785 67.43153565 21.38316785 67.43153565 28.96118164 59.92163086 C30.1339511 58.35353637 31.30656365 56.78419611 32.41982841 55.17331123 C37.50211527 48.0710178 43.46021186 41.90649827 52.29768944 40.36957741 C61.81567676 39.25954484 71.41989693 39.81642532 80.95574951 40.42071533 C85.1441558 40.6600028 89.33596653 40.76185658 93.52929688 40.87695312 C101.69525082 41.12055126 109.84509648 41.51054075 118 42 C118.66 40.68 119.32 39.36 120 38 C125.34965035 37.64335664 125.34965035 37.64335664 127.9375 39.0625 C129.66665678 42.21566824 128.8590699 44.62508255 128 48 C125 50 125 50 121.8125 49.625 C120.884375 49.41875 119.95625 49.2125 119 49 C118.67 47.68 118.34 46.36 118 45 C108.94045403 44.68745184 99.88616136 44.48253687 90.82152843 44.40672016 C86.60954589 44.3682827 82.40445043 44.29587 78.19506836 44.1394043 C55.7669308 42.8000814 55.7669308 42.8000814 36.66609192 52.91581726 C33.12716549 56.73802261 29.90565983 60.67587686 27 65 C27.88820686 64.90192299 27.88820686 64.90192299 28.7943573 64.80186462 C36.95344166 63.95081574 44.11725703 63.28346253 51.15380859 68.20654297 C58.10846601 74.0811006 64.15122903 81.05040345 70 88 C73.88705069 84.89323241 77.11605142 82.02804156 79.99267578 77.96020508 C84.50725355 71.94692162 89.01065113 66.97677108 96.53405762 65.13470459 C105.85741859 63.99854264 115.20862355 64.2753599 124.57714844 64.6126709 C129.18275556 64.76265162 133.7903873 64.81121699 138.39798164 64.86342335 C141.97425684 64.90409547 145.54644628 64.96326342 149.12106323 65.08195496 C150.39063873 65.11380386 151.66021423 65.14565277 152.96826172 65.1784668 C154.08804413 65.21562302 155.20782654 65.25277924 156.36154175 65.2910614 C157.23223297 65.19501114 158.10292419 65.09896088 159 65 C159.66 64.01 160.32 63.02 161 62 C164.15728506 61.59694233 166.15230863 61.50779211 168.9375 63.125 C170 65 170 65 169.875 68.0625 C169 71 169 71 166 73 C163.4375 72.875 163.4375 72.875 161 72 C159.84765625 69.9453125 159.84765625 69.9453125 159 68 C150.88734761 67.63959494 142.78286435 67.40017831 134.66321278 67.30309582 C130.88943952 67.2544243 127.12519486 67.16860101 123.35522461 66.98852539 C103.0165752 65.8769443 103.0165752 65.8769443 85.66036129 75.19950199 C80.98804931 79.74697553 76.85134786 84.74280097 73 90 C73.40539001 90.45972198 73.81078003 90.91944397 74.22845459 91.39309692 C74.76375793 92.00732513 75.29906128 92.62155334 75.85058594 93.25439453 C76.37972595 93.85849152 76.90886597 94.4625885 77.45404053 95.08499146 C78.96499062 96.95663324 80.17957108 98.85505137 81.390625 100.9296875 C85.21854756 106.56029857 89.30771082 111.06714761 96.26849365 112.45098877 C109.37880261 114.13955948 122.82535082 113.53260544 136 113 C136.66 111.68 137.32 110.36 138 109 C144.875 109.875 144.875 109.875 146 111 C146.45378151 116.21848739 146.45378151 116.21848739 144.875 118.9375 C142.07329973 120.52513015 140.03014356 119.74070176 137 119 C136.67 118.01 136.34 117.02 136 116 C134.93305908 116.23565674 133.86611816 116.47131348 132.7668457 116.71411133 C118.88651579 119.48969008 102.38642828 121.75912635 89.77783203 114.02301025 C81.63635676 108.17757627 74.63906833 100.91835167 67.8125 93.625 C67.31120701 93.09096684 66.80991402 92.55693367 66.29343033 92.00671768 C48 72.43204872 48 72.43204872 48 69 C32.16 69 16.32 69 0 69 C0 75.6 0 82.2 0 89 C2.12610718 88.9371582 2.12610718 88.9371582 4.29516602 88.87304688 C9.57079409 88.72788012 14.84624703 88.63627399 20.12329102 88.56054688 C22.40386676 88.5203976 24.68423762 88.46586401 26.96411133 88.39648438 C30.24872396 88.29905639 33.53060884 88.25398795 36.81640625 88.21875 C37.83021866 88.17745972 38.84403107 88.13616943 39.88856506 88.09362793 C46.80111903 88.08927911 46.80111903 88.08927911 49.98361206 90.50683594 C51.82637055 92.57932208 53.4103519 94.72829644 55 97 C56.19875469 98.50482608 57.40874917 100.00075611 58.62890625 101.48828125 C59.25928802 102.2681842 59.8896698 103.04808716 60.53915405 103.85162354 C80.6404335 128.62311254 80.6404335 128.62311254 109.38894653 139.61843872 C123.75453739 140.42225186 138.83743615 139.55977079 150.19625854 129.89147949 C155.37717053 125.03990472 159.82141888 119.35716224 163 113 C164.93033081 112.97812622 164.93033081 112.97812622 166.8996582 112.95581055 C171.6689855 112.89788852 176.43783762 112.82065537 181.20678711 112.73754883 C183.2718129 112.70427076 185.33693027 112.67624786 187.40209961 112.65356445 C190.36872432 112.62007145 193.33450748 112.56775855 196.30078125 112.51171875 C197.2258699 112.50532883 198.15095856 112.4989389 199.1040802 112.49235535 C199.96474594 112.47256119 200.82541168 112.45276703 201.7121582 112.43237305 C202.46938675 112.42126999 203.2266153 112.41016693 204.00679016 112.39872742 C206.5064128 111.89869573 207.2977623 110.83485287 209 109 C211.87879197 108.5681812 213.36737712 108.62042627 215.875 110.125 C217 112 217 112 216.875 115.0625 C216 118 216 118 213 120 C210.4375 119.875 210.4375 119.875 208 119 C206.84765625 116.9453125 206.84765625 116.9453125 206 115 C180.63215346 112.20619855 180.63215346 112.20619855 157.82421875 120.51953125 C152.66624162 125.20710463 149.30250996 130.2512682 145 136 C157.54 136.33 170.08 136.66 183 137 C183.66 135.68 184.32 134.36 185 133 C187.875 132.875 187.875 132.875 191 133 C193 135 193 135 193.25 138 C193 141 193 141 191 143 C187.875 143.125 187.875 143.125 185 143 C184.34 141.68 183.68 140.36 183 139 C181.97462128 139.10214813 180.94924255 139.20429626 179.89279175 139.30953979 C166.90590378 140.56167438 153.91257807 141.38218545 140.875 141.875 C139.32025278 141.93384432 139.32025278 141.93384432 137.73409653 141.99387741 C94.31989883 143.44226772 94.31989883 143.44226772 79.97633743 130.29248428 C73.88357589 124.37044378 68.6852691 117.83284867 63.4640522 111.14934731 C52.90138147 96.96167596 52.90138147 96.96167596 37.20185852 90.10572815 C24.46536975 88.65788215 12.96860868 90.50664506 0 92 C0 106.85 0 121.7 0 137 C15.51 137 31.02 137 47 137 C47.66 135.68 48.32 134.36 49 133 C50 132 50 132 52.375 131.75 C55 132 55 132 56.8125 133.125 C58.55198782 135.87155972 58.39769128 137.81846974 58 141 C56.9375 142.9375 56.9375 142.9375 55 144 C51.3125 143.6875 51.3125 143.6875 48 143 C47.67 141.68 47.34 140.36 47 139 C45.55609642 139.04151184 45.55609642 139.04151184 44.08302307 139.0838623 C5.91948476 140.14819264 -32.25557315 140.34836968 -70.43180275 140.44470215 C-81.31085436 140.47275064 -92.18927992 140.52443273 -103.06807047 140.60529089 C-110.82615348 140.66097137 -118.58406371 140.69002764 -126.34233946 140.6992898 C-130.93978292 140.7055221 -135.53646365 140.72344597 -140.13368416 140.77067566 C-144.41828868 140.81422217 -148.70170779 140.82486895 -152.98649597 140.81004715 C-154.5530846 140.81037595 -156.11972409 140.82266494 -157.68610954 140.84789658 C-169.4569038 141.02755832 -169.4569038 141.02755832 -173.21404839 138.52565002 C-174.79404529 136.74322754 -175.90264997 135.10758105 -177 133 C-177.3965381 132.31647209 -177.79307619 131.63294418 -178.20163059 130.92870331 C-183.73962507 121.07051445 -184.47240075 109.75340141 -182.3828125 98.75 C-178.71495218 86.28576669 -170.99093511 77.63515259 -160 71 C-159.278125 70.54496094 -158.55625 70.08992188 -157.8125 69.62109375 C-148.69475759 64.94825077 -135.16126003 65.44120793 -125.41796875 67.90625 C-123.1608794 68.81037735 -121.07905583 69.74472101 -119 71 C-119.0825 69.72125 -119.165 68.4425 -119.25 67.125 C-119.17478062 57.51196271 -114.80117141 50.97593523 -108.296875 44.1953125 C-99.66844578 35.94841246 -91.71182146 33.39482761 -79.76171875 33.64453125 C-71.65132276 34.41093419 -64.83677459 37.74600692 -58 42 C-57.938125 41.21625 -57.87625 40.4325 -57.8125 39.625 C-54.82799566 26.3095191 -45.09403152 15.43858804 -34 8 C-22.30777461 1.28033023 -14.17244702 0 0 0 Z " fill="#7AA3DA" transform="translate(234,109)"/>
<path d="M0 0 C38.66221146 -5.38927796 38.66221146 -5.38927796 50.13812256 2.02838135 C58.36860464 8.68377587 65.30315991 16.63210555 72.248703 24.58122253 C86.11757694 41.7838212 86.11757694 41.7838212 105.90089417 49.51078796 C113.04144198 49.75345913 120.10182927 48.84110867 127 47 C123.15485764 56.85556917 116.37247822 61.37477963 107 66 C102.07195596 68.03638183 97.63695853 68.41965907 92.375 68.4375 C91.19381592 68.44330078 91.19381592 68.44330078 89.98876953 68.44921875 C82.80737741 68.30866551 77.32715033 66.47372959 71 63 C70.814375 64.299375 70.62875 65.59875 70.4375 66.9375 C68.8043714 74.18950461 64.29592867 79.7366325 58.1875 83.875 C50.48787925 88.17904332 41.89480685 90.62356968 33.234375 88.23828125 C28.0621822 86.4888631 24.14373112 84.62576473 20 81 C19.01 81 18.02 81 17 81 C15.43522887 82.80483654 15.43522887 82.80483654 13.9375 85.125 C8.37042778 92.54776296 0.88450884 96.48862188 -8.0859375 98.5859375 C-19.5304276 100.21209829 -28.42817301 97.01168057 -37.90625 90.73828125 C-41.77947142 87.76420052 -44.32227768 84.01658349 -47 80 C-47.4846875 80.37511719 -47.969375 80.75023437 -48.46875 81.13671875 C-61.96760183 91.44257293 -73.81444506 96.69316292 -91.2421875 94.75 C-103.13883151 92.38054393 -114.22333931 84.772747 -121.140625 74.96484375 C-124.19716229 69.95137709 -126.29399766 65.8833528 -127 60 C-127.67804688 60.15984375 -128.35609375 60.3196875 -129.0546875 60.484375 C-141.1519463 62.6021975 -153.29064169 61.4408414 -163.5625 54.5 C-166.43097842 52.40715814 -168.00706736 50.98939896 -170 48 C-148.64648699 47.8678567 -127.29296416 47.73741195 -105.93942928 47.60884857 C-96.01877807 47.54908199 -86.0981305 47.48880551 -76.17749023 47.42724609 C9.28285813 46.89747401 9.28285813 46.89747401 47 47 C47.33 48.32 47.66 49.64 48 51 C50.97 51 53.94 51 57 51 C57.04125 49.72125 57.0825 48.4425 57.125 47.125 C57.14820313 46.40570313 57.17140625 45.68640625 57.1953125 44.9453125 C57.18331689 42.76136355 57.18331689 42.76136355 55 41 C52.54258463 40.49985047 52.54258463 40.49985047 50 41 C49.54815842 41.65836853 49.09631683 42.31673706 48.63078308 42.99505615 C47 45 47 45 44.85493469 45.48101807 C44.02664658 45.47213562 43.19835846 45.46325317 42.3449707 45.45410156 C41.40422195 45.45379944 40.46347321 45.45349731 39.49421692 45.45318604 C37.97534126 45.42221832 37.97534126 45.42221832 36.42578125 45.390625 C35.38681198 45.38496521 34.34784271 45.37930542 33.27738953 45.37347412 C29.95529319 45.35106327 26.63427096 45.3008569 23.3125 45.25 C21.06186452 45.22994115 18.81121216 45.21168931 16.56054688 45.1953125 C11.03961675 45.15458266 5.52101213 45.07629806 0 45 C0 30.15 0 15.3 0 0 Z " fill="#C5D9F3" transform="translate(234,201)"/>
<path d="M0 0 C6.76190657 0 10.86115926 0.10067623 16.8125 2.4375 C17.49755615 2.70191895 18.1826123 2.96633789 18.88842773 3.23876953 C31.44579419 8.38458376 40.87715238 17.60344381 48 29 C48.94875 28.835 49.8975 28.67 50.875 28.5 C63.54821809 26.73343021 74.77287323 28.89931419 85.19140625 36.625 C86.85036242 38.01919347 88.43403143 39.50211702 90 41 C90 41.33 90 41.66 90 42 C88.78755615 41.90984619 87.5751123 41.81969238 86.32592773 41.72680664 C62.1463804 39.05393295 62.1463804 39.05393295 40.3344574 46.69581604 C36.71307718 50.13911234 33.75493281 53.7168759 30.96850586 57.86938477 C28.73046875 61.00390625 28.73046875 61.00390625 23 66 C15.41 66 7.82 66 0 66 C0 44.22 0 22.44 0 0 Z " fill="#C6DAF4" transform="translate(234,109)"/>
<path d="M0 0 C6.70758919 -0.19825762 13.41346178 -0.34316513 20.12329102 -0.43945312 C22.40386676 -0.4796024 24.68423762 -0.53413599 26.96411133 -0.60351562 C30.24872396 -0.70094361 33.53060884 -0.74601205 36.81640625 -0.78125 C37.83021866 -0.82254028 38.84403107 -0.86383057 39.88856506 -0.90637207 C46.80949259 -0.91072616 46.80949259 -0.91072616 49.98141479 1.51576233 C51.8156375 3.58798804 53.40369933 5.74020395 55 8 C56.20767554 9.4715382 57.4294644 10.93159059 58.6640625 12.38061523 C59.29982208 13.13742081 59.93558167 13.89422638 60.59060669 14.67396545 C78.73253699 37.38934253 78.73253699 37.38934253 104.1796875 48.71484375 C113.49181155 49.431781 122.81654725 48.57701739 132 47 C132.02722195 48.73558864 132.04649592 50.47130292 132.0625 52.20703125 C132.07410156 53.17358643 132.08570313 54.1401416 132.09765625 55.13598633 C131.96556126 59.01000211 131.11743404 62.29849974 130 66 C133.63 66.33 137.26 66.66 141 67 C141 67.33 141 67.66 141 68 C125.08808672 71.24047274 105.25539547 74.72889492 90.61907959 65.97875977 C82.21765593 60.05914037 75.04079198 52.61969079 68.0625 45.125 C67.2977599 44.30601353 67.2977599 44.30601353 66.5175705 43.47048187 C48 23.54332723 48 23.54332723 48 20 C32.16 20 16.32 20 0 20 C0 13.4 0 6.8 0 0 Z " fill="#C4D8F2" transform="translate(234,178)"/>
<path d="M0 0 C2.20032088 0.07036098 4.40085992 0.13421543 6.6015625 0.19140625 C11.94753667 0.34433636 17.28522889 0.57735508 22.625 0.875 C23.44849784 2.46867187 24.26594472 4.06547147 25.08081055 5.66357422 C25.53667038 6.55245331 25.99253021 7.4413324 26.46220398 8.35714722 C27.81541252 11.28730851 28.3136634 13.7802484 28.4375 17 C28.50904297 18.39605469 28.50904297 18.39605469 28.58203125 19.8203125 C28.59621094 20.49835938 28.61039062 21.17640625 28.625 21.875 C27.57884521 22.10622559 26.53269043 22.33745117 25.45483398 22.57568359 C21.46691694 23.72260515 19.25253074 25.66897452 16.34765625 28.6640625 C14.96030273 30.07558594 14.96030273 30.07558594 13.54492188 31.515625 C12.5921661 32.51014676 11.63969558 33.50494187 10.6875 34.5 C9.7088581 35.5037519 8.72905011 36.50636829 7.74804688 37.5078125 C5.36200135 39.95262762 2.98842714 42.40834563 0.625 44.875 C-3.23738605 41.74266904 -6.64302517 38.68299217 -9.78515625 34.82421875 C-17.42290502 25.64560598 -17.42290502 25.64560598 -28.30859375 21.61328125 C-33.6911289 21.24598613 -39.0048238 21.4219348 -44.375 21.875 C-44.00976227 21.45533966 -43.64452454 21.03567932 -43.26821899 20.603302 C-40.60277436 17.52014519 -38.02589978 14.42288389 -35.58349609 11.15966797 C-25.51762415 -1.38871991 -15.20316316 -0.85047852 0 0 Z " fill="#C4D8F1" transform="translate(304.375,153.125)"/>
<path d="M0 0 C3.81375901 0.16572198 7.62927244 0.23717146 11.44561768 0.31738281 C18.89174213 0.48738181 26.32930109 0.75918461 33.76983643 1.09863281 C33.76983643 1.42863281 33.76983643 1.75863281 33.76983643 2.09863281 C13.96983643 2.09863281 -5.83016357 2.09863281 -26.23016357 2.09863281 C-26.56016357 5.06863281 -26.89016357 8.03863281 -27.23016357 11.09863281 C-27.56016357 12.08863281 -27.89016357 13.07863281 -28.23016357 14.09863281 C-27.21953857 14.20175781 -26.20891357 14.30488281 -25.16766357 14.41113281 C-14.59540353 16.25708298 -5.9846458 22.1648248 0.26202393 30.79394531 C3.67970624 36.01786388 5.87412911 39.7840672 5.76983643 46.09863281 C-27.17181088 49.87259177 -27.17181088 49.87259177 -36.91351318 42.62051392 C-43.21476634 37.26815184 -48.45930901 30.82515556 -53.23016357 24.09863281 C-52.36971436 23.11636719 -51.50926514 22.13410156 -50.6227417 21.12207031 C-48.3473811 18.49270586 -46.30760034 15.80236298 -44.32196045 12.95019531 C-32.6309571 -2.4340638 -17.55532212 -0.84496198 0 0 Z " fill="#C4D7F0" transform="translate(359.23016357421875,175.9013671875)"/>
<path d="M0 0 C5.34965035 -0.35664336 5.34965035 -0.35664336 7.9375 1.0625 C9.66665678 4.21566824 8.8590699 6.62508255 8 10 C5 12 5 12 1.8125 11.625 C0.884375 11.41875 -0.04375 11.2125 -1 11 C-1.33 9.68 -1.66 8.36 -2 7 C-11.05954597 6.68745184 -20.11383864 6.48253687 -29.17847157 6.40672016 C-33.39045411 6.3682827 -37.59554957 6.29587 -41.80493164 6.1394043 C-64.2330692 4.8000814 -64.2330692 4.8000814 -83.33390808 14.91581726 C-86.87283451 18.73802261 -90.09434017 22.67587686 -93 27 C-92.40786209 26.93461533 -91.81572418 26.86923065 -91.2056427 26.80186462 C-83.04655834 25.95081574 -75.88274297 25.28346253 -68.84619141 30.20654297 C-61.89153399 36.0811006 -55.84877097 43.05040345 -50 50 C-46.11294931 46.89323241 -42.88394858 44.02804156 -40.00732422 39.96020508 C-35.49274645 33.94692162 -30.98934887 28.97677108 -23.46594238 27.13470459 C-14.14258141 25.99854264 -4.79137645 26.2753599 4.57714844 26.6126709 C9.18275556 26.76265162 13.7903873 26.81121699 18.39798164 26.86342335 C21.97425684 26.90409547 25.54644628 26.96326342 29.12106323 27.08195496 C30.39063873 27.11380386 31.66021423 27.14565277 32.96826172 27.1784668 C34.08804413 27.21562302 35.20782654 27.25277924 36.36154175 27.2910614 C37.23223297 27.19501114 38.10292419 27.09896088 39 27 C39.99 25.515 39.99 25.515 41 24 C44.15728506 23.59694233 46.15230863 23.50779211 48.9375 25.125 C50 27 50 27 49.875 30.0625 C49 33 49 33 46 35 C43.4375 34.875 43.4375 34.875 41 34 C39.84765625 31.9453125 39.84765625 31.9453125 39 30 C30.88734761 29.63959494 22.78286435 29.40017831 14.66321278 29.30309582 C10.88943952 29.2544243 7.12519486 29.16860101 3.35522461 28.98852539 C-16.9834248 27.8769443 -16.9834248 27.8769443 -34.33963871 37.19950199 C-39.01195069 41.74697553 -43.14865214 46.74280097 -47 52 C-46.59460999 52.45972198 -46.18921997 52.91944397 -45.77154541 53.39309692 C-45.23624207 54.00732513 -44.70093872 54.62155334 -44.14941406 55.25439453 C-43.62027405 55.85849152 -43.09113403 56.4625885 -42.54595947 57.08499146 C-41.03500938 58.95663324 -39.82042892 60.85505137 -38.609375 62.9296875 C-34.78145244 68.56029857 -30.69228918 73.06714761 -23.73150635 74.45098877 C-10.62119739 76.13955948 2.82535082 75.53260544 16 75 C16.99 73.02 16.99 73.02 18 71 C24.875 71.875 24.875 71.875 26 73 C26.45378151 78.21848739 26.45378151 78.21848739 24.875 80.9375 C22.07329973 82.52513015 20.03014356 81.74070176 17 81 C16.67 80.01 16.34 79.02 16 78 C14.93305908 78.23565674 13.86611816 78.47131348 12.7668457 78.71411133 C-1.11348421 81.48969008 -17.61357172 83.75912635 -30.22216797 76.02301025 C-38.36364324 70.17757627 -45.36093167 62.91835167 -52.1875 55.625 C-52.93943949 54.82395025 -52.93943949 54.82395025 -53.70656967 54.00671768 C-72 34.43204872 -72 34.43204872 -72 31 C-105.99 30.67 -139.98 30.34 -175 30 C-175 29.34 -175 28.68 -175 28 C-173.61082619 28.05781898 -173.61082619 28.05781898 -172.19358826 28.11680603 C-163.35655517 28.46328012 -154.52515987 28.69318737 -145.68186855 28.80052853 C-141.13684682 28.85959036 -136.60136493 28.95961736 -132.06030273 29.16235352 C-111.91008752 30.96248768 -111.91008752 30.96248768 -93.59573364 24.66995239 C-90.02193714 21.38594463 -87.03274723 17.63706456 -84.02350998 13.84402084 C-78.72258823 7.28434851 -74.15149035 3.11482032 -65.51000977 2.10961914 C-56.69876428 1.37807079 -47.85156729 1.86259287 -39.04425049 2.42071533 C-34.8558442 2.6600028 -30.66403347 2.76185658 -26.47070312 2.87695312 C-18.30474918 3.12055126 -10.15490352 3.51054075 -2 4 C-1.34 2.68 -0.68 1.36 0 0 Z " fill="#30353B" transform="translate(354,147)"/>
<path d="M0 0 C11.22 0 22.44 0 34 0 C34 12.54 34 25.08 34 38 C22.78 38 11.56 38 0 38 C0 25.46 0 12.92 0 0 Z " fill="#94BBD4" transform="translate(196,339)"/>
<path d="M0 0 C8.91 0 17.82 0 27 0 C27 15.51 27 31.02 27 47 C18.09 47 9.18 47 0 47 C0 31.49 0 15.98 0 0 Z " fill="#92B9D1" transform="translate(371,331)"/>
<path d="M0 0 C8.91 0 17.82 0 27 0 C27 15.51 27 31.02 27 47 C18.09 47 9.18 47 0 47 C0 31.49 0 15.98 0 0 Z " fill="#97BED7" transform="translate(231,331)"/>
<path d="M0 0 C3.63 0 7.26 0 11 0 C13.54903409 2.78076446 15.16364922 4.86137029 16.921875 8.07128906 C18.72831663 11.30292151 20.68354968 14.44473877 22.61132812 17.60498047 C25.10025287 21.72102312 27.54555901 25.86330169 30 30 C30.33 20.1 30.66 10.2 31 0 C33.97 0 36.94 0 40 0 C40 15.84 40 31.68 40 48 C30 48 30 48 27.87426758 46.33862305 C27.46845459 45.57074463 27.0626416 44.80286621 26.64453125 44.01171875 C26.16693359 43.15900391 25.68933594 42.30628906 25.19726562 41.42773438 C24.74029297 40.52345703 24.28332031 39.61917969 23.8125 38.6875 C22.86251058 36.94040803 21.91067364 35.19431945 20.95703125 33.44921875 C19.98121094 31.65097656 19.00539062 29.85273438 18 28 C15.69 24.37 13.38 20.74 11 17 C10.67 27.23 10.34 37.46 10 48 C6.7 48 3.4 48 0 48 C0 32.16 0 16.32 0 0 Z " fill="#090A0B" transform="translate(110,328)"/>
<path d="M0 0 C2.97 0 5.94 0 9 0 C9.01981934 0.97348389 9.03963867 1.94696777 9.06005859 2.94995117 C9.13635367 6.57504351 9.22503336 10.19974694 9.31738281 13.82446289 C9.35557409 15.39079081 9.39044394 16.95720349 9.421875 18.52368164 C9.46774071 20.780418 9.52569769 23.03657583 9.5859375 25.29296875 C9.59748871 25.98899704 9.60903992 26.68502533 9.62094116 27.40214539 C9.73911254 31.32920234 10.1534717 34.50422907 12 38 C14.46369532 39.23184766 16.1894501 39.16732342 18.9375 39.1875 C19.81277344 39.20167969 20.68804687 39.21585937 21.58984375 39.23046875 C24.26244335 39.16663349 24.26244335 39.16663349 27 37 C28.20161511 33.39515466 28.23017136 30.02710143 28.31640625 26.26953125 C28.33718735 25.51911057 28.35796844 24.76868988 28.37937927 23.99552917 C28.44469926 21.60127816 28.50367792 19.20691861 28.5625 16.8125 C28.60570193 15.18813987 28.64931676 13.56379067 28.69335938 11.93945312 C28.80036263 7.95974629 28.90167937 3.97993042 29 0 C32.3 0 35.6 0 39 0 C39.07479497 4.53487644 39.12890262 9.06938482 39.16479492 13.60473633 C39.17977543 15.14386255 39.2001671 16.68294688 39.22631836 18.22192383 C39.55345773 37.98499065 39.55345773 37.98499065 34.58276367 43.60131836 C28.69317029 48.80592741 22.30495235 48.41520402 14.90625 48.2734375 C9.84590295 47.91921321 7.77454216 47.34561692 4 44 C0.23544116 38.55902267 -0.56511017 34.75746615 -0.390625 28.22265625 C-0.38496521 27.41130722 -0.37930542 26.59995819 -0.37347412 25.76402283 C-0.3512492 23.1962245 -0.30108235 20.62986985 -0.25 18.0625 C-0.2299169 16.31186924 -0.21166931 14.56121641 -0.1953125 12.81054688 C-0.15143044 8.53981622 -0.08250275 4.27015207 0 0 Z " fill="#060809" transform="translate(264,328)"/>
<path d="M0 0 C4.51073954 2.55278117 7.21972939 4.98713096 8.7578125 10.08203125 C8.7578125 13.38203125 8.7578125 16.68203125 8.7578125 20.08203125 C0.8378125 20.08203125 -7.0821875 20.08203125 -15.2421875 20.08203125 C-13.23067487 26.85693017 -13.23067487 26.85693017 -10.2421875 28.08203125 C-4.36765557 28.63121002 -4.36765557 28.63121002 0.7578125 26.08203125 C1.4178125 25.42203125 2.0778125 24.76203125 2.7578125 24.08203125 C4.4078125 25.07203125 6.0578125 26.06203125 7.7578125 27.08203125 C7.50487987 30.4966217 6.49832661 31.32998444 3.9453125 33.76953125 C-0.89111996 37.27831559 -4.27339688 37.47995062 -10.2421875 37.08203125 C-14.47224829 36.07788598 -17.48043462 34.823738 -20.6171875 31.76953125 C-24.58825615 25.20199463 -25.18377408 18.63454676 -24.2421875 11.08203125 C-22.56540288 6.26225033 -19.90429118 3.12340297 -15.4921875 0.58203125 C-10.27886843 -1.60325099 -5.30507977 -2.17194032 0 0 Z " fill="#050607" transform="translate(184.2421875,339.91796875)"/>
<path d="M0 0 C16.19086178 -1.39185781 32.38279287 -2.33998319 48.625 -2.875 C50.41135361 -2.93406525 50.41135361 -2.93406525 52.23379517 -2.99432373 C102.05133972 -4.44973124 102.05133972 -4.44973124 116.85006142 8.7376461 C121.49962307 13.1661992 125.59147499 17.91219812 129.5 23 C129.91797474 23.54019146 130.33594948 24.08038292 130.76659012 24.63694382 C131.60304849 25.71915634 132.4384216 26.80220859 133.27268124 27.88611698 C135.28120425 30.49375862 137.30488465 33.08871524 139.33984375 35.67578125 C140.1073848 36.65169724 140.87492584 37.62761322 141.66572571 38.63310242 C148.26584185 46.39948311 154.52112429 49.06151216 164.57598877 50.13397217 C179.00464885 50.89133936 193.79650022 49.48444793 205.17414856 39.86936951 C210.38239555 35.03769548 214.81895766 29.36208469 218 23 C219.28688721 22.98541748 220.57377441 22.97083496 221.8996582 22.95581055 C226.6689855 22.89788852 231.43783762 22.82065537 236.20678711 22.73754883 C238.2718129 22.70427076 240.33693027 22.67624786 242.40209961 22.65356445 C245.36872432 22.62007145 248.33450748 22.56775855 251.30078125 22.51171875 C252.68841423 22.50213387 252.68841423 22.50213387 254.1040802 22.49235535 C254.96474594 22.47256119 255.82541168 22.45276703 256.7121582 22.43237305 C257.46938675 22.42126999 258.2266153 22.41016693 259.00679016 22.39872742 C261.5064128 21.89869573 262.2977623 20.83485287 264 19 C266.87879197 18.5681812 268.36737712 18.62042627 270.875 20.125 C272 22 272 22 271.875 25.0625 C271 28 271 28 268 30 C265.4375 29.875 265.4375 29.875 263 29 C261.84765625 26.9453125 261.84765625 26.9453125 261 25 C235.63215346 22.20619855 235.63215346 22.20619855 212.82421875 30.51953125 C207.66624162 35.20710463 204.30250996 40.2512682 200 46 C218.81 46.495 218.81 46.495 238 47 C238.66 45.68 239.32 44.36 240 43 C242.875 42.875 242.875 42.875 246 43 C248 45 248 45 248.25 48 C248 51 248 51 246 53 C242.875 53.125 242.875 53.125 240 53 C239.01 51.02 239.01 51.02 238 49 C236.97462128 49.10214813 235.94924255 49.20429626 234.89279175 49.30953979 C156.02045251 56.91422991 156.02045251 56.91422991 140.86621094 44.50146484 C134.56451628 38.49829186 129.56662104 31.52590835 124.60173035 24.41877747 C117.26731452 14.03717382 109.44827539 4.37369687 96.46081543 1.63897705 C80.52646971 -0.98836127 64.21979614 -0.74838929 48.125 -0.375 C46.93867477 -0.34758099 45.75234955 -0.32016197 44.53007507 -0.29191208 C29.6604454 0.08861569 14.83067861 0.86951725 0 2 C0 1.34 0 0.68 0 0 Z " fill="#060708" transform="translate(179,199)"/>
<path d="M0 0 C6.6 0 13.2 0 20 0 C20.06900495 4.75111878 20.12869507 9.50048771 20.16479492 14.25170898 C20.17984876 15.86667789 20.20029648 17.48160613 20.22631836 19.09643555 C20.26285286 21.42246555 20.27976015 23.74795341 20.29296875 26.07421875 C20.30845261 26.79212082 20.32393646 27.51002289 20.33988953 28.24967957 C20.34136614 32.68310969 19.73671423 35.47899113 17 39 C13.30846481 40.8457676 9.02978061 40.48175083 5 40 C1.90200019 37.80873184 1.19647888 36.58943664 0 33 C-0.0846817 30.48631945 -0.11601885 28.00130626 -0.09765625 25.48828125 C-0.0962413 24.76005661 -0.09482635 24.03183197 -0.09336853 23.28153992 C-0.08777659 20.95848461 -0.07522562 18.63552612 -0.0625 16.3125 C-0.05748396 14.73632952 -0.05292123 13.16015752 -0.04882812 11.58398438 C-0.03866121 7.72258905 -0.01908436 3.86140275 0 0 Z " fill="#98C0D8" transform="translate(273,328)"/>
<path d="M0 0 C2.64 0 5.28 0 8 0 C8 1.65 8 3.3 8 5 C8.66 5 9.32 5 10 5 C10.28875 4.360625 10.5775 3.72125 10.875 3.0625 C12 1 12 1 14 0 C24.50309235 -1.08599182 24.50309235 -1.08599182 29.1875 2.3125 C31.99782458 6.479533 32.1199283 9.49584652 32.09765625 14.41796875 C32.09443359 15.67158203 32.09121094 16.92519531 32.08789062 18.21679688 C32.07532227 20.18229492 32.07532227 20.18229492 32.0625 22.1875 C32.05748317 23.52278481 32.05292059 24.85807141 32.04882812 26.19335938 C32.03702695 29.46228473 32.02056297 32.73111991 32 36 C29.03 36 26.06 36 23 36 C22.98541748 35.22285645 22.97083496 34.44571289 22.95581055 33.64501953 C22.88153022 30.13783312 22.78480411 26.6316199 22.6875 23.125 C22.66494141 21.90167969 22.64238281 20.67835938 22.61914062 19.41796875 C22.5659668 17.66806641 22.5659668 17.66806641 22.51171875 15.8828125 C22.48553467 14.80402832 22.45935059 13.72524414 22.43237305 12.61376953 C22.28968994 11.75122559 22.14700684 10.88868164 22 10 C18.53076119 7.68717413 17.07794425 7.57521414 13 8 C11.23201264 9.10533257 11.23201264 9.10533257 10 11 C9.49454132 13.70484875 9.49454132 13.70484875 9.48828125 16.76171875 C9.45283203 17.87998047 9.41738281 18.99824219 9.38085938 20.15039062 C9.34702148 21.90125977 9.34702148 21.90125977 9.3125 23.6875 C9.27833984 24.86634766 9.24417969 26.04519531 9.20898438 27.25976562 C9.12642075 30.17308225 9.05729678 33.08609466 9 36 C6.03 36 3.06 36 0 36 C0 24.12 0 12.24 0 0 Z " fill="#040506" transform="translate(314,340)"/>
<path d="M0 0 C3.3 0 6.6 0 10 0 C10.33773437 0.71027344 10.67546875 1.42054688 11.0234375 2.15234375 C11.46945313 3.07144531 11.91546875 3.99054688 12.375 4.9375 C12.81585938 5.85402344 13.25671875 6.77054687 13.7109375 7.71484375 C14.79199162 10.12903802 14.79199162 10.12903802 17 11 C17.268125 10.29875 17.53625 9.5975 17.8125 8.875 C19.0681449 5.8350176 20.50235123 2.9272226 22 0 C25.3 0 28.6 0 32 0 C31.41089844 1.01320313 30.82179687 2.02640625 30.21484375 3.0703125 C29.45486353 4.42138844 28.69579672 5.77297847 27.9375 7.125 C27.54755859 7.79015625 27.15761719 8.4553125 26.75585938 9.140625 C24.98474476 12.33803545 23.99349738 14.36111775 24.03125 18.0703125 C25.18612314 21.5628724 26.74043022 24.55493623 28.5625 27.75 C32 33.80885312 32 33.80885312 32 36 C28.74890324 36.79618696 26.21236693 37.03690325 23 36 C20.02069213 32.30824895 17.98705646 28.29357537 16 24 C13.92464393 26.64028108 12.27321903 29.22782269 10.8125 32.25 C10.214375 33.4875 9.61625 34.725 9 36 C5.7 36 2.4 36 -1 36 C0.1225346 33.72791794 1.24791521 31.45732355 2.375 29.1875 C2.69210938 28.54490234 3.00921875 27.90230469 3.3359375 27.24023438 C4.76458611 24.36805539 6.21785473 21.6732179 8 19 C7.68990166 14.45984231 5.50218351 10.65741622 3.4375 6.6875 C3.10814453 6.04232422 2.77878906 5.39714844 2.43945312 4.73242188 C1.63175745 3.15214772 0.81662387 1.57567895 0 0 Z " fill="#040506" transform="translate(197,340)"/>
<path d="M0 0 C3.96 0 7.92 0 12 0 C12 17.49 12 34.98 12 53 C8.04 53 4.08 53 0 53 C0 35.51 0 18.02 0 0 Z " fill="#060809" transform="translate(355,324)"/>
<path d="M0 0 C5.34965035 -0.35664336 5.34965035 -0.35664336 7.9375 1.0625 C9.66665678 4.21566824 8.8590699 6.62508255 8 10 C5 12 5 12 1.8125 11.625 C0.884375 11.41875 -0.04375 11.2125 -1 11 C-1.33 9.68 -1.66 8.36 -2 7 C-11.05954597 6.68745184 -20.11383864 6.48253687 -29.17847157 6.40672016 C-33.39045411 6.3682827 -37.59554957 6.29587 -41.80493164 6.1394043 C-64.2330692 4.8000814 -64.2330692 4.8000814 -83.33390808 14.91581726 C-86.89517594 18.76215238 -90.00623051 22.69470856 -93 27 C-86.73 27.33 -80.46 27.66 -74 28 C-74.33 28.66 -74.66 29.32 -75 30 C-108 30 -141 30 -175 30 C-175 29.34 -175 28.68 -175 28 C-173.61082619 28.05781898 -173.61082619 28.05781898 -172.19358826 28.11680603 C-163.35655517 28.46328012 -154.52515987 28.69318737 -145.68186855 28.80052853 C-141.13684682 28.85959036 -136.60136493 28.95961736 -132.06030273 29.16235352 C-111.91008752 30.96248768 -111.91008752 30.96248768 -93.59573364 24.66995239 C-90.02193714 21.38594463 -87.03274723 17.63706456 -84.02350998 13.84402084 C-78.72258823 7.28434851 -74.15149035 3.11482032 -65.51000977 2.10961914 C-56.69876428 1.37807079 -47.85156729 1.86259287 -39.04425049 2.42071533 C-34.8558442 2.6600028 -30.66403347 2.76185658 -26.47070312 2.87695312 C-18.30474918 3.12055126 -10.15490352 3.51054075 -2 4 C-1.34 2.68 -0.68 1.36 0 0 Z " fill="#202225" transform="translate(354,147)"/>
<path d="M0 0 C0 2.64 0 5.28 0 8 C3.3 8 6.6 8 10 8 C10 10.31 10 12.62 10 15 C6.7 15 3.4 15 0 15 C0.33 21.6 0.66 28.2 1 35 C5.71058562 36.3721042 5.71058562 36.3721042 9 35 C10.25664978 37.90600261 11 39.79604584 11 43 C7.83800849 44.05399717 5.38539814 44.23445913 2.0625 44.3125 C1.02222656 44.34988281 -0.01804688 44.38726562 -1.08984375 44.42578125 C-4.70179062 43.89732191 -5.79038257 42.84533102 -8 40 C-9.00005304 36.99984088 -9.11575585 35.02576244 -9.09765625 31.89453125 C-9.09443359 30.91162109 -9.09121094 29.92871094 -9.08789062 28.91601562 C-9.07951172 27.89185547 -9.07113281 26.86769531 -9.0625 25.8125 C-9.05798828 24.77673828 -9.05347656 23.74097656 -9.04882812 22.67382812 C-9.0370401 20.11582734 -9.02058515 17.55794267 -9 15 C-10.98 15 -12.96 15 -15 15 C-15 12.69 -15 10.38 -15 8 C-13.02 8 -11.04 8 -9 8 C-9 5.69 -9 3.38 -9 1 C-6.04335481 -0.4783226 -3.25770263 -0.06032783 0 0 Z " fill="#040506" transform="translate(246,332)"/>
<path d="M0 0 C0 2.64 0 5.28 0 8 C3.3 8 6.6 8 10 8 C10 10.31 10 12.62 10 15 C6.7 15 3.4 15 0 15 C0.11355702 18.1258064 0.24030583 21.25009525 0.375 24.375 C0.4059375 25.26445312 0.436875 26.15390625 0.46875 27.0703125 C0.50742187 27.92109375 0.54609375 28.771875 0.5859375 29.6484375 C0.6173584 30.43395996 0.6487793 31.21948242 0.68115234 32.02880859 C0.8399465 34.23002939 0.8399465 34.23002939 3 36 C6.58343976 36.16677282 6.58343976 36.16677282 10 36 C10.66 37.98 11.32 39.96 12 42 C7.33834068 45.10777288 2.45528913 44.73620636 -3 44 C-6.48242391 41.47353559 -7.65226822 40.04319535 -9 36 C-9.08143855 34.37280518 -9.1075302 32.74248281 -9.09765625 31.11328125 C-9.09443359 30.17548828 -9.09121094 29.23769531 -9.08789062 28.27148438 C-9.07951172 27.29501953 -9.07113281 26.31855469 -9.0625 25.3125 C-9.05798828 24.32443359 -9.05347656 23.33636719 -9.04882812 22.31835938 C-9.03704303 19.87884526 -9.02059011 17.43945311 -9 15 C-10.65 15 -12.3 15 -14 15 C-14 12.69 -14 10.38 -14 8 C-12.35 8 -10.7 8 -9 8 C-9 5.69 -9 3.38 -9 1 C-5.8035914 -0.06546953 -3.34252724 -0.07427838 0 0 Z " fill="#030405" transform="translate(385,332)"/>
<path d="M0 0 C10.89 0 21.78 0 33 0 C33 12.54 33 25.08 33 38 C22.11 38 11.22 38 0 38 C0 37.67 0 37.34 0 37 C2.97 37 5.94 37 9 37 C8.97905273 36.26362305 8.95810547 35.52724609 8.93652344 34.76855469 C8.85332856 31.42917558 8.80132843 28.09001451 8.75 24.75 C8.69972656 23.01169922 8.69972656 23.01169922 8.6484375 21.23828125 C8.63554687 20.12324219 8.62265625 19.00820313 8.609375 17.859375 C8.58842773 16.83295898 8.56748047 15.80654297 8.54589844 14.74902344 C9.12000079 11.27354359 10.23862782 10.12058424 13 8 C16.31188665 7.51701653 18.1995333 7.57311454 21.16308594 9.15356445 C23 11 23 11 23.45410156 13.72729492 C23.42268066 15.33761597 23.42268066 15.33761597 23.390625 16.98046875 C23.37128906 18.72553711 23.37128906 18.72553711 23.3515625 20.50585938 C23.31804687 21.72080078 23.28453125 22.93574219 23.25 24.1875 C23.23195313 25.41404297 23.21390625 26.64058594 23.1953125 27.90429688 C23.14811124 30.93697759 23.08227677 33.96810087 23 37 C25.97 37 28.94 37 32 37 C31.91890198 32.45761452 31.80607248 27.91654961 31.6875 23.375 C31.66494141 22.08980469 31.64238281 20.80460937 31.61914062 19.48046875 C31.5659668 17.61455078 31.5659668 17.61455078 31.51171875 15.7109375 C31.48553467 14.56931152 31.45935059 13.42768555 31.43237305 12.25146484 C30.94758775 8.6058575 29.89182787 6.13883961 28 3 C25.31432703 1.65716351 23.12253147 1.75712481 20.125 1.6875 C19.07570313 1.65011719 18.02640625 1.61273438 16.9453125 1.57421875 C13.33615527 2.09596694 12.3552808 3.32258438 10 6 C9.34 6 8.68 6 8 6 C8 4.35 8 2.7 8 1 C5.36 1 2.72 1 0 1 C0 0.67 0 0.34 0 0 Z " fill="#96BDD5" transform="translate(314,339)"/>
<path d="M0 0 C0.33 0 0.66 0 1 0 C1 16.17 1 32.34 1 49 C-12.2 49 -25.4 49 -39 49 C-39 48.67 -39 48.34 -39 48 C-36.03 48 -33.06 48 -30 48 C-30 37.44 -30 26.88 -30 16 C-26.82017825 19.17982175 -24.88612294 21.50807056 -22.6171875 25.24609375 C-22.00746094 26.24833984 -21.39773437 27.25058594 -20.76953125 28.28320312 C-19.83173828 29.84458008 -19.83173828 29.84458008 -18.875 31.4375 C-18.24207031 32.47455078 -17.60914063 33.51160156 -16.95703125 34.58007812 C-14.29502797 38.98001348 -11.7982159 43.16749924 -10 48 C-6.7 48 -3.4 48 0 48 C0 32.16 0 16.32 0 0 Z " fill="#92B9D1" transform="translate(150,328)"/>
<path d="M0 0 C3.96 0 7.92 0 12 0 C12 12.87 12 25.74 12 39 C0.78 39 -10.44 39 -22 39 C-22 34.05 -22 29.1 -22 24 C-21.34 25.32 -20.68 26.64 -20 28 C-17.41066443 32.87990166 -15.23139278 34.92801114 -10.078125 36.53125 C-3.91600183 37.9212026 0.44970815 36.88188231 6 34 C8.5242483 31.98060136 8.94833532 31.15499404 10 28 C8.02 27.34 6.04 26.68 4 26 C3.505 26.66 3.01 27.32 2.5 28 C-0.5737912 30.45903296 -2.2687371 30.53744255 -6.09765625 30.31640625 C-8.86966222 29.85535392 -10.1948071 29.16623148 -12 27 C-12.33 25.02 -12.66 23.04 -13 21 C-5.08 21 2.84 21 11 21 C10.34984944 12.3530077 10.34984944 12.3530077 6.625 4.875 C5.325625 3.946875 5.325625 3.946875 4 3 C2.68 2.01 1.36 1.02 0 0 Z " fill="#94BBD3" transform="translate(182,339)"/>
<path d="M0 0 C26.87030632 -3.81238568 26.87030632 -3.81238568 35.015625 2.24121094 C37.69361948 5.19613439 40.16429599 8.25620897 42.5625 11.4375 C47.55707199 18.02585986 52.12501784 22.78991898 60.56152344 24.1875 C74.28410387 25.70136068 88.25859672 24.95052422 102 24 C102.4640625 23.0409375 102.4640625 23.0409375 102.9375 22.0625 C104 20 104 20 105 19 C107.77193929 18.70821692 109.41409825 18.63633684 111.8125 20.125 C113.55198782 22.87155972 113.39769128 24.81846974 113 28 C111.9375 29.9375 111.9375 29.9375 110 31 C106.3125 30.6875 106.3125 30.6875 103 30 C102.505 28.02 102.505 28.02 102 26 C101.1712587 26.07328018 101.1712587 26.07328018 100.32577515 26.14804077 C57.32044125 29.77702717 57.32044125 29.77702717 48.48266602 22.54788208 C45.15681346 19.29676699 42.45043978 15.66961449 39.68652344 11.94433594 C35.53509825 6.68218461 32.52127027 3.53795485 25.847229 2.53068542 C17.24587097 1.70995274 8.5830008 2.14671922 0 3 C0 2.01 0 1.02 0 0 Z " fill="#0C0F15" transform="translate(179,222)"/>
<path d="M0 0 C6.6 0 13.2 0 20 0 C20 10.23 20 20.46 20 31 C17.44503409 28.44503409 15.86510466 26.38899738 14.00390625 23.359375 C13.16569336 22.00005859 13.16569336 22.00005859 12.31054688 20.61328125 C11.73369141 19.66839844 11.15683594 18.72351563 10.5625 17.75 C9.98951172 16.82058594 9.41652344 15.89117187 8.82617188 14.93359375 C5.79297206 9.99809946 2.87621479 5.03337588 0 0 Z " fill="#96BED6" transform="translate(121,328)"/>
<path d="M0 0 C3.96 0 7.92 0 12 0 C12 17.49 12 34.98 12 53 C8.04 53 4.08 53 0 53 C0 35.51 0 18.02 0 0 Z M1 16 C1 27.88 1 39.76 1 52 C3.97 52 6.94 52 10 52 C10 40.12 10 28.24 10 16 C7.03 16 4.06 16 1 16 Z " fill="#8DB2C9" transform="translate(355,324)"/>
<path d="M0 0 C3.15728506 -0.40305767 5.15230863 -0.49220789 7.9375 1.125 C9 3 9 3 8.875 6.0625 C8 9 8 9 5 11 C2.4375 10.875 2.4375 10.875 0 10 C-1.15234375 7.9453125 -1.15234375 7.9453125 -2 6 C-10.11265239 5.63959494 -18.21713565 5.40017831 -26.33678722 5.30309582 C-30.11056048 5.2544243 -33.87480514 5.16860101 -37.64477539 4.98852539 C-57.9834248 3.8769443 -57.9834248 3.8769443 -75.33963871 13.19950199 C-80.01195069 17.74697553 -84.14865214 22.74280097 -88 28 C-88.33 27.01 -88.66 26.02 -89 25 C-82.26195603 15.74839196 -74.08071409 4.62106786 -62.16043282 2.47541428 C-53.51193302 1.40424081 -44.75887589 1.82134687 -36.07952881 2.26934814 C-31.51362023 2.48213623 -26.94351394 2.55059261 -22.37375164 2.63515663 C-18.82980416 2.7024321 -15.29170541 2.79209284 -11.75068665 2.95370483 C-9.87053108 3.02568588 -9.87053108 3.02568588 -7.95239258 3.09912109 C-6.2953405 3.17747696 -6.2953405 3.17747696 -4.60481262 3.25741577 C-3.74522446 3.17246857 -2.88563629 3.08752136 -2 3 C-1.34 2.01 -0.68 1.02 0 0 Z " fill="#0B0B0B" transform="translate(395,171)"/>
<path d="M0 0 C1.98 0 3.96 0 6 0 C6.01458252 0.64026123 6.02916504 1.28052246 6.04418945 1.94018555 C6.11891382 4.85654831 6.21549293 7.77179687 6.3125 10.6875 C6.33505859 11.69490234 6.35761719 12.70230469 6.38085938 13.74023438 C6.58751265 19.43259265 6.76403069 23.76403069 11 28 C12.93538935 28.09955104 14.87455769 28.12968668 16.8125 28.125 C17.87082031 28.12757813 18.92914063 28.13015625 20.01953125 28.1328125 C22.53689017 28.02063661 24.60423255 27.7309121 27 27 C27 28.32 27 29.64 27 31 C18.09 31 9.18 31 0 31 C0 20.77 0 10.54 0 0 Z " fill="#8FB5CC" transform="translate(231,347)"/>
<path d="M0 0 C1.65 0 3.3 0 5 0 C5.01981934 0.60473145 5.03963867 1.20946289 5.06005859 1.83251953 C5.15586299 4.59708509 5.26531555 7.36095174 5.375 10.125 C5.4059375 11.07632812 5.436875 12.02765625 5.46875 13.0078125 C5.67539278 17.9672391 5.90344351 22.41145109 8 27 C11.69868022 29.21920813 15.76250158 29.50147077 20 30 C20 30.33 20 30.66 20 31 C13.4 31 6.8 31 0 31 C0 20.77 0 10.54 0 0 Z " fill="#97BFD7" transform="translate(371,347)"/>
<path d="M0 0 C0.33 0 0.66 0 1 0 C1 5.61 1 11.22 1 17 C-11.87 17 -24.74 17 -38 17 C-38 12.71 -38 8.42 -38 4 C-37.01 5.32 -36.02 6.64 -35 8 C-31.14007933 12.14941472 -29.18796837 13.87592764 -23.41796875 14.203125 C-22.00788566 14.2243492 -20.59770572 14.23977185 -19.1875 14.25 C-18.48818359 14.270625 -17.78886719 14.29125 -17.06835938 14.3125 C-12.27091167 14.34840232 -9.0796276 13.50298956 -5 11 C-1.84737193 7.84737193 -1.06481498 4.25925992 0 0 Z " fill="#8DB2C9" transform="translate(302,361)"/>
<path d="M0 0 C2.5 0.375 2.5 0.375 4.375 1.5 C5.5 3.375 5.5 3.375 5.375 6.4375 C4.5 9.375 4.5 9.375 1.5 11.375 C-1 11.25 -1 11.25 -3.5 10.375 C-3.85102783 9.70952148 -4.20205566 9.04404297 -4.5637207 8.35839844 C-7.29383478 5.56184734 -9.4455258 5.85843442 -13.24345398 5.76934814 C-14.14666885 5.76811951 -15.04988373 5.76689087 -15.98046875 5.765625 C-17.37245232 5.74082062 -17.37245232 5.74082062 -18.79255676 5.71551514 C-21.75760435 5.66691573 -24.72213866 5.64563778 -27.6875 5.625 C-29.69729162 5.5968503 -31.7070592 5.56692429 -33.71679688 5.53515625 C-38.64448901 5.46115355 -43.5718942 5.41165194 -48.5 5.375 C-48.5 5.045 -48.5 4.715 -48.5 4.375 C-47.21311279 4.36041748 -45.92622559 4.34583496 -44.6003418 4.33081055 C-39.8310145 4.27288852 -35.06216238 4.19565537 -30.29321289 4.11254883 C-28.2281871 4.07927076 -26.16306973 4.05124786 -24.09790039 4.02856445 C-21.13127568 3.99507145 -18.16549252 3.94275855 -15.19921875 3.88671875 C-13.81158577 3.87713387 -13.81158577 3.87713387 -12.3959198 3.86735535 C-11.53525406 3.84756119 -10.67458832 3.82776703 -9.7878418 3.80737305 C-9.03061325 3.79626999 -8.2733847 3.78516693 -7.49320984 3.77372742 C-4.165243 3.10799138 -3.43021749 0.51453262 0 0 Z " fill="#171717" transform="translate(445.5,217.625)"/>
<path d="M0 0 C6.875 0.875 6.875 0.875 8 2 C8.45378151 7.21848739 8.45378151 7.21848739 6.875 9.9375 C5 11 5 11 1.9375 10.875 C-1 10 -1 10 -3 7 C-6.04440276 6.66238965 -8.8948124 6.51082557 -11.9453125 6.48828125 C-12.8303244 6.47033005 -13.7153363 6.45237885 -14.62716675 6.43388367 C-17.45972904 6.37961015 -20.29212126 6.34583081 -23.125 6.3125 C-25.04299251 6.27934192 -26.96096253 6.24485369 -28.87890625 6.20898438 C-33.58581506 6.12387407 -38.29267194 6.05714463 -43 6 C-43 5.67 -43 5.34 -43 5 C-41.8039917 4.9906543 -40.6079834 4.98130859 -39.37573242 4.97167969 C-34.94175862 4.93183186 -30.50848252 4.86608809 -26.07495117 4.79248047 C-24.15544593 4.76424052 -22.23582375 4.74304105 -20.31616211 4.72900391 C-17.55782062 4.70761589 -14.80088962 4.66098867 -12.04296875 4.609375 C-11.18350143 4.60814636 -10.32403412 4.60691772 -9.43852234 4.60565186 C-4.67645047 4.6138895 -4.67645047 4.6138895 -0.93481445 1.96191406 C-0.4720813 0.9907666 -0.4720813 0.9907666 0 0 Z " fill="#060606" transform="translate(372,218)"/>
<path d="M0 0 C3.71787087 0.28002253 7.44103062 0.43261514 11.16546631 0.59753418 C18.4176058 0.93672103 25.65179357 1.41133341 32.89007568 1.97839355 C32.89007568 2.30839355 32.89007568 2.63839355 32.89007568 2.97839355 C31.77612175 2.9272364 31.77612175 2.9272364 30.6396637 2.87504578 C23.53809179 2.56850822 16.44269386 2.36924034 9.33559132 2.28148937 C5.6827343 2.23283736 2.0397304 2.14711264 -1.60919189 1.96691895 C-20.432214 0.82967429 -20.432214 0.82967429 -36.84674072 8.77770996 C-42.18965127 13.6483765 -46.81066678 19.17597411 -51.10992432 24.97839355 C-51.43992432 23.98839355 -51.76992432 22.99839355 -52.10992432 21.97839355 C-37.33862558 1.76195956 -24.43248383 -1.99976077 0 0 Z " fill="#000000" transform="translate(358.10992431640625,174.0216064453125)"/>
<path d="M0 0 C10.89 0 21.78 0 33 0 C33 12.54 33 25.08 33 38 C29.7 38 26.4 38 23 38 C23 37.67 23 37.34 23 37 C25.97 37 28.94 37 32 37 C31.91890198 32.45761452 31.80607248 27.91654961 31.6875 23.375 C31.66494141 22.08980469 31.64238281 20.80460937 31.61914062 19.48046875 C31.5659668 17.61455078 31.5659668 17.61455078 31.51171875 15.7109375 C31.48553467 14.56931152 31.45935059 13.42768555 31.43237305 12.25146484 C30.94758775 8.6058575 29.89182787 6.13883961 28 3 C25.31432703 1.65716351 23.12253147 1.75712481 20.125 1.6875 C19.07570313 1.65011719 18.02640625 1.61273438 16.9453125 1.57421875 C13.33615527 2.09596694 12.3552808 3.32258438 10 6 C9.34 6 8.68 6 8 6 C8 4.35 8 2.7 8 1 C5.36 1 2.72 1 0 1 C0 0.67 0 0.34 0 0 Z " fill="#97BFD7" transform="translate(314,339)"/>
<path d="M0 0 C5.34965035 -0.35664336 5.34965035 -0.35664336 7.9375 1.0625 C9.66665678 4.21566824 8.8590699 6.62508255 8 10 C5 12 5 12 1.8125 11.625 C0.4203125 11.315625 0.4203125 11.315625 -1 11 C-2.20898633 6.61742454 -2.2184264 4.02089784 0 0 Z " fill="#1D1D1D" transform="translate(354,147)"/>
<path d="M0 0 C2.9375 0.75 2.9375 0.75 4.9375 2.75 C4.75 5.75 4.75 5.75 3.9375 8.75 C0.9375 10.75 0.9375 10.75 -1.625 10.5 C-4.0625 9.75 -4.0625 9.75 -6.0625 7.75 C-6.375 4.75 -6.375 4.75 -6.0625 1.75 C-3.0625 -0.25 -3.0625 -0.25 0 0 Z " fill="#090C0D" transform="translate(361.0625,325.25)"/>
<path d="M0 0 C2 3 2 3 2 7 C-2.95 7 -7.9 7 -13 7 C-10.05324956 -0.36687609 -7.86920925 -2.04016536 0 0 Z " fill="#91B7CE" transform="translate(182,347)"/>
<path d="M0 0 C0.99 1.32 1.98 2.64 3 4 C9.06106846 10.88013176 15.28949993 11.34585177 24 12 C24 12.33 24 12.66 24 13 C16.08 13 8.16 13 0 13 C0 8.71 0 4.42 0 0 Z " fill="#95BCD4" transform="translate(264,365)"/>
<path d="M0 0 C0.495 0.99 0.495 0.99 1 2 C0.67 2.66 0.34 3.32 0 4 C-23.76 3.67 -47.52 3.34 -72 3 C-72 2.67 -72 2.34 -72 2 C-71.12747589 1.98969254 -70.25495178 1.97938507 -69.35598755 1.96876526 C-61.14493399 1.87090564 -52.93395438 1.76840779 -44.72302437 1.66066074 C-40.50141155 1.60542777 -36.27979181 1.55200717 -32.05810547 1.50268555 C-27.98617286 1.45504751 -23.91432574 1.40270491 -19.84249496 1.34705925 C-18.28674312 1.32663315 -16.73096783 1.30792049 -15.17517471 1.29092598 C-13.00097403 1.26688756 -10.82693544 1.2368324 -8.65283203 1.20532227 C-7.41373077 1.18977798 -6.17462952 1.1742337 -4.89797974 1.15821838 C-2.06052487 1.19600783 -2.06052487 1.19600783 0 0 Z " fill="#010101" transform="translate(353,150)"/>
<path d="M0 0 C4.95 0 9.9 0 15 0 C15 0.33 15 0.66 15 1 C10.545 1.495 10.545 1.495 6 2 C6 4.31 6 6.62 6 9 C4.02 9 2.04 9 0 9 C0 6.03 0 3.06 0 0 Z " fill="#8EB3CB" transform="translate(231,331)"/>
<path d="M0 0 C0.99 0.33 1.98 0.66 3 1 C-3.93 7.93 -10.86 14.86 -18 22 C-18.33 21.01 -18.66 20.02 -19 19 C-12.73 12.73 -6.46 6.46 0 0 Z " fill="#090A0C" transform="translate(325,177)"/>
<path d="M0 0 C4.29 0 8.58 0 13 0 C11.03761331 1.3082578 9.03721846 2.56162256 7 3.75 C3.69602635 6.22798024 2.54541324 8.22232318 1 12 C0.67 12 0.34 12 0 12 C0 8.04 0 4.08 0 0 Z " fill="#95BCD4" transform="translate(160,339)"/>
<path d="M0 0 C7.92 0 15.84 0 24 0 C24 0.33 24 0.66 24 1 C23.32453125 1.02578125 22.6490625 1.0515625 21.953125 1.078125 C16.27864207 1.31325112 16.27864207 1.31325112 11.5 4.0625 C11.005 4.701875 10.51 5.34125 10 6 C9.34 6 8.68 6 8 6 C8 4.35 8 2.7 8 1 C5.36 1 2.72 1 0 1 C0 0.67 0 0.34 0 0 Z " fill="#81A3B9" transform="translate(314,339)"/>
<path d="M0 0 C1.2065625 0.0309375 1.2065625 0.0309375 2.4375 0.0625 C3.0625 2.4375 3.0625 2.4375 3.4375 5.0625 C2.7775 5.7225 2.1175 6.3825 1.4375 7.0625 C-0.6875 6.6875 -0.6875 6.6875 -2.5625 6.0625 C-2.94468767 4.40635343 -3.27645102 2.73792976 -3.5625 1.0625 C-2.5625 0.0625 -2.5625 0.0625 0 0 Z " fill="#B8CAE3" transform="translate(286.5625,243.9375)"/>
<path d="M0 0 C1.2065625 0.0309375 1.2065625 0.0309375 2.4375 0.0625 C2.81968767 1.71864657 3.15145102 3.38707024 3.4375 5.0625 C2.4375 6.0625 2.4375 6.0625 -0.125 6.125 C-1.3315625 6.0940625 -1.3315625 6.0940625 -2.5625 6.0625 C-2.94468767 4.40635343 -3.27645102 2.73792976 -3.5625 1.0625 C-2.5625 0.0625 -2.5625 0.0625 0 0 Z " fill="#EEEEEE" transform="translate(357.5625,149.9375)"/>
<path d="M0 0 C2.74086056 -0.22223194 4.43963721 -0.34781139 6.8125 1.125 C8.55198782 3.87155972 8.39769128 5.81846974 8 9 C6.5 10.875 6.5 10.875 5 12 C3.90341064 8.71023192 4.20046862 7.28696233 5 4 C4.360625 3.71125 3.72125 3.4225 3.0625 3.125 C1 2 1 2 0 0 Z " fill="#1B1D21" transform="translate(284,241)"/>
<path d="M0 0 C0 1.32 0 2.64 0 4 C-6.93 3.505 -6.93 3.505 -14 3 C-14 2.67 -14 2.34 -14 2 C-12.95199219 1.90912109 -12.95199219 1.90912109 -11.8828125 1.81640625 C-10.97273438 1.73261719 -10.06265625 1.64882813 -9.125 1.5625 C-8.22007812 1.48128906 -7.31515625 1.40007812 -6.3828125 1.31640625 C-3.9906624 0.99876009 -2.3900132 0 0 0 Z " fill="#80A1B6" transform="translate(398,374)"/>
<path d="M0 0 C0.66 0.99 1.32 1.98 2 3 C2.99 3.66 3.98 4.32 5 5 C5.33 5.66 5.66 6.32 6 7 C3.03 6.505 3.03 6.505 0 6 C-1.125 2.25 -1.125 2.25 0 0 Z " fill="#2C2C2C" transform="translate(353,152)"/>
</svg>
