<?xml version="1.0" standalone="no"?>
<!DOCTYPE svg PUBLIC "-//W3C//DTD SVG 20010904//EN"
 "http://www.w3.org/TR/2001/REC-SVG-20010904/DTD/svg10.dtd">
<svg version="1.0" xmlns="http://www.w3.org/2000/svg"
 width="300.000000pt" height="302.000000pt" viewBox="0 0 300.000000 302.000000"
 preserveAspectRatio="xMidYMid meet">
<metadata>
Created by potrace 1.10, written by Peter Selinger 2001-2011
</metadata>
<g transform="translate(0.000000,302.000000) scale(0.100000,-0.100000)"
fill="#000000" stroke="none">
<path d="M0 1510 l0 -1510 1503 2 1502 3 -1497 2 -1498 3 0 1500 0 1500 1498
3 1497 2 -1502 3 -1503 2 0 -1510z"/>
<path d="M1321 2359 c-123 -24 -206 -101 -266 -246 -1 -1 -23 9 -50 23 -60 31
-138 30 -201 -2 -47 -25 -102 -101 -110 -156 -5 -30 -10 -38 -22 -33 -103 39
-202 21 -281 -50 -87 -79 -107 -221 -45 -321 16 -27 35 -49 42 -48 7 1 229 2
494 3 265 0 479 3 476 6 -3 3 -214 6 -468 6 -516 0 -502 -2 -535 68 -22 46
-21 149 1 196 48 102 165 154 284 126 53 -12 59 -8 85 64 22 59 82 120 131
134 44 12 105 6 143 -14 51 -26 66 -20 101 42 42 74 110 137 178 162 65 25 98
27 106 4 4 -9 6 -74 6 -143 -1 -69 0 -138 1 -155 l1 -30 7 30 c4 17 8 101 9
188 2 178 9 165 -87 146z"/>
<path d="M1475 2345 c97 -39 133 -64 183 -129 12 -16 25 -27 27 -24 3 3 -14
27 -39 54 -48 54 -120 98 -176 108 l-35 6 40 -15z"/>
<path d="M1775 2180 c33 -4 71 -10 85 -14 21 -5 20 -4 -5 8 -16 9 -55 15 -85
14 l-55 -1 60 -7z"/>
<path d="M2120 2125 c-10 -12 -48 -15 -224 -15 l-212 0 -69 -70 -69 -70 -238
0 c-152 0 -238 -4 -238 -10 0 -6 109 -10 308 -10 l307 0 140 -140 140 -140
125 0 c91 -1 130 -4 143 -15 31 -23 64 4 51 40 -7 17 -49 20 -59 5 -4 -6 -58
-10 -128 -10 l-121 0 -67 66 -66 65 67 65 67 64 191 0 c131 0 198 -4 211 -12
36 -22 68 25 36 52 -12 10 -20 9 -40 -4 -20 -13 -56 -16 -217 -16 l-192 0 -68
-67 -68 -67 -68 67 -68 67 -64 0 -64 0 59 60 59 59 210 3 c190 3 213 1 229
-14 22 -23 30 -22 51 1 14 15 15 24 6 40 -13 25 -42 27 -60 6z m45 -25 c0 -22
-29 -18 -33 3 -3 14 1 18 15 15 10 -2 18 -10 18 -18z"/>
<path d="M2031 1856 c52 -18 94 -51 119 -91 26 -42 37 -47 16 -7 -30 57 -107
113 -154 112 -9 -1 -1 -7 19 -14z"/>
<path d="M1070 1820 c0 -6 109 -10 308 -10 l307 0 140 -140 140 -140 272 0
c154 0 273 -4 273 -9 0 -15 32 -22 47 -10 8 7 13 22 11 33 -3 24 -33 33 -53
16 -13 -11 -235 -21 -235 -10 0 2 26 30 57 62 l57 58 124 0 c96 0 127 -3 138
-15 20 -19 54 -3 54 26 0 25 -27 36 -51 21 -12 -8 -66 -12 -142 -12 l-123 0
-69 -70 -69 -70 -141 0 -140 0 -140 140 -140 140 -312 0 c-202 0 -313 -4 -313
-10z"/>
<path d="M1390 1691 c0 -52 2 -92 5 -89 9 8 12 157 3 170 -4 7 -8 -29 -8 -81z"/>
<path d="M1070 1680 c0 -6 40 -10 99 -10 l98 0 64 -70 63 -70 147 0 c121 0
148 -3 153 -15 14 -37 73 -4 61 35 -7 21 -49 28 -60 10 -4 -6 -64 -10 -148
-10 l-143 0 -69 70 -69 70 -98 0 c-59 0 -98 -4 -98 -10z m670 -146 c0 -8 -9
-14 -20 -14 -22 0 -28 26 -7 33 16 6 27 -1 27 -19z"/>
<path d="M445 1482 c19 -18 79 -32 129 -31 l51 2 -65 7 c-36 5 -78 13 -95 20
-16 6 -25 7 -20 2z"/>
<path d="M2105 1470 c-65 -44 -93 -52 -158 -48 -34 3 -71 8 -82 12 -11 3 -6 0
10 -8 68 -34 201 -10 251 45 22 24 17 24 -21 -1z"/>
<path d="M650 1438 c-2 -38 73 -129 134 -161 33 -17 58 -22 126 -22 92 0 144
19 185 66 16 18 12 17 -25 -8 -64 -43 -113 -56 -182 -50 -95 8 -171 60 -220
151 -9 17 -17 28 -18 24z"/>
<path d="M1798 1384 c-15 -24 -42 -53 -60 -64 -44 -27 -121 -27 -171 0 -20 11
-37 16 -37 12 0 -9 55 -35 97 -47 58 -16 164 41 190 102 20 50 13 48 -19 -3z"/>
<path d="M1138 1325 c43 -83 184 -125 272 -80 41 20 90 64 90 79 0 6 -6 4 -13
-4 -25 -32 -83 -68 -128 -78 -66 -16 -129 4 -187 60 -24 24 -40 34 -34 23z"/>
<path d="M2135 1049 c-10 -30 19 -53 47 -38 29 15 20 53 -14 57 -20 2 -28 -2
-33 -19z"/>
<path d="M660 905 l0 -145 31 0 30 0 -3 100 c-2 55 0 100 3 100 3 0 33 -45 65
-100 54 -91 62 -100 89 -100 l30 0 0 145 0 145 -30 0 -30 0 2 -97 c2 -70 0
-94 -8 -83 -5 8 -33 52 -60 98 -48 77 -53 82 -85 82 l-34 0 0 -145z"/>
<path d="M1588 930 c3 -119 3 -119 33 -145 54 -45 161 -29 187 30 7 15 12 71
12 130 l0 105 -30 0 -30 0 0 -108 c0 -119 -5 -132 -56 -132 -55 0 -64 18 -64
136 l0 104 -27 0 -28 0 3 -120z"/>
<path d="M1678 1038 c16 -8 28 -8 45 0 19 9 17 11 -23 11 -40 0 -42 -2 -22
-11z"/>
<path d="M1427 1023 c-4 -3 -7 -15 -7 -25 0 -10 -7 -18 -15 -18 -9 0 -15 -9
-15 -25 0 -17 4 -23 14 -19 11 4 15 -11 18 -70 2 -41 9 -81 15 -87 7 -7 34
-15 61 -19 51 -6 52 -6 43 43 0 4 -14 7 -31 7 -30 0 -30 1 -30 55 0 70 0 70
33 69 22 -2 27 2 27 22 0 21 -5 24 -34 24 -30 0 -33 2 -28 25 4 21 1 25 -20
25 -14 0 -28 -3 -31 -7z"/>
<path d="M2267 1023 c-4 -3 -7 -15 -7 -25 0 -10 -7 -18 -15 -18 -9 0 -15 -9
-15 -25 0 -17 4 -23 14 -19 11 4 15 -11 18 -70 2 -41 9 -81 15 -87 7 -7 34
-15 61 -19 51 -6 52 -6 43 43 0 4 -14 7 -31 7 -30 0 -30 1 -30 55 0 70 0 70
33 69 22 -2 27 2 27 22 0 21 -5 24 -34 24 -30 0 -33 2 -28 25 4 21 1 25 -20
25 -14 0 -28 -3 -31 -7z"/>
<path d="M995 957 c-51 -43 -41 -157 14 -187 36 -18 98 -12 127 14 l28 23 -22
12 c-17 9 -27 8 -46 -4 -34 -23 -86 2 -86 41 0 2 34 4 75 4 l75 0 0 35 c0 53
-36 85 -94 85 -32 0 -52 -6 -71 -23z m109 -39 c15 -24 5 -30 -48 -26 -46 3
-47 3 -30 26 19 27 61 27 78 0z"/>
<path d="M1201 943 c13 -21 27 -45 32 -53 6 -11 0 -31 -22 -68 -17 -29 -31
-55 -31 -57 0 -3 13 -5 28 -5 24 0 32 7 47 40 10 22 21 40 25 40 5 0 15 -18
24 -40 14 -34 20 -40 46 -40 16 0 30 2 30 5 0 3 -13 27 -30 53 -16 27 -30 52
-30 55 0 3 13 29 30 57 l29 50 -32 0 c-29 0 -35 -5 -46 -35 -7 -19 -16 -35
-21 -35 -5 0 -14 16 -21 35 -11 31 -17 35 -47 35 l-34 0 23 -37z"/>
<path d="M1885 870 l0 -110 28 0 27 0 0 74 c0 79 13 106 50 106 32 0 43 -36
36 -112 l-6 -68 30 0 30 0 0 88 c0 108 -13 132 -69 132 -22 0 -44 -6 -51 -15
-7 -8 -16 -15 -21 -15 -5 0 -6 7 -3 15 5 11 -1 15 -22 15 l-29 0 0 -110z"/>
<path d="M2140 870 l0 -110 31 0 c24 0 30 3 25 16 -3 9 -6 58 -6 110 0 94 0
94 -25 94 l-25 0 0 -110z"/>
<path d="M2376 897 c-3 -13 -1 -36 3 -52 8 -27 9 -24 10 23 1 56 -3 66 -13 29z"/>
</g>
</svg>
